<?xml version="1.0" standalone="no"?>
<svg xmlns:xlink="http://www.w3.org/1999/xlink" id="wave" style="transform:rotate(180deg); transition: 0.3s" viewBox="0 0 1440 490" version="1.1" xmlns="http://www.w3.org/2000/svg"><defs><linearGradient id="sw-gradient-0" x1="0" x2="0" y1="1" y2="0"><stop stop-color="rgba(254, 249, 243, 1)" offset="0%"/><stop stop-color="rgba(254, 249, 243, 1)" offset="100%"/></linearGradient></defs><path style="transform:translate(0, 0px); opacity:1" fill="url(#sw-gradient-0)" d="M0,343L120,302.2C240,261,480,180,720,187.8C960,196,1200,294,1440,334.8C1680,376,1920,359,2160,326.7C2400,294,2640,245,2880,245C3120,245,3360,294,3600,285.8C3840,278,4080,212,4320,171.5C4560,131,4800,114,5040,147C5280,180,5520,261,5760,318.5C6000,376,6240,408,6480,416.5C6720,425,6960,408,7200,392C7440,376,7680,359,7920,343C8160,327,8400,310,8640,302.2C8880,294,9120,294,9360,294C9600,294,9840,294,10080,318.5C10320,343,10560,392,10800,416.5C11040,441,11280,441,11520,383.8C11760,327,12000,212,12240,171.5C12480,131,12720,163,12960,220.5C13200,278,13440,359,13680,326.7C13920,294,14160,147,14400,130.7C14640,114,14880,229,15120,236.8C15360,245,15600,147,15840,114.3C16080,82,16320,114,16560,122.5C16800,131,17040,114,17160,106.2L17280,98L17280,490L17160,490C17040,490,16800,490,16560,490C16320,490,16080,490,15840,490C15600,490,15360,490,15120,490C14880,490,14640,490,14400,490C14160,490,13920,490,13680,490C13440,490,13200,490,12960,490C12720,490,12480,490,12240,490C12000,490,11760,490,11520,490C11280,490,11040,490,10800,490C10560,490,10320,490,10080,490C9840,490,9600,490,9360,490C9120,490,8880,490,8640,490C8400,490,8160,490,7920,490C7680,490,7440,490,7200,490C6960,490,6720,490,6480,490C6240,490,6000,490,5760,490C5520,490,5280,490,5040,490C4800,490,4560,490,4320,490C4080,490,3840,490,3600,490C3360,490,3120,490,2880,490C2640,490,2400,490,2160,490C1920,490,1680,490,1440,490C1200,490,960,490,720,490C480,490,240,490,120,490L0,490Z"/></svg>